<?xml version="1.0" encoding="UTF-8" standalone="no"?>
<!-- Creator: CorelDRAW X7 -->

<svg
   xmlns:dc="http://purl.org/dc/elements/1.1/"
   xmlns:cc="http://creativecommons.org/ns#"
   xmlns:rdf="http://www.w3.org/1999/02/22-rdf-syntax-ns#"
   xmlns:svg="http://www.w3.org/2000/svg"
   xmlns="http://www.w3.org/2000/svg"
   xmlns:sodipodi="http://sodipodi.sourceforge.net/DTD/sodipodi-0.dtd"
   xmlns:inkscape="http://www.inkscape.org/namespaces/inkscape"
   xml:space="preserve"
   width="45.879578mm"
   height="71.369347mm"
   version="1.1"
   style="clip-rule:evenodd;fill-rule:evenodd;image-rendering:optimizeQuality;shape-rendering:geometricPrecision;text-rendering:geometricPrecision"
   viewBox="0 0 4587.8431 7137.0002"
   id="svg1007"
   sodipodi:docname="Untitled-1.svg"
   inkscape:version="0.92.3 (2405546, 2018-03-11)"><metadata
   id="metadata1011"><rdf:RDF><cc:Work
       rdf:about=""><dc:format>image/svg+xml</dc:format><dc:type
         rdf:resource="http://purl.org/dc/dcmitype/StillImage" /></cc:Work></rdf:RDF></metadata><sodipodi:namedview
   pagecolor="#ffffff"
   bordercolor="#666666"
   borderopacity="1"
   objecttolerance="10"
   gridtolerance="10"
   guidetolerance="10"
   inkscape:pageopacity="0"
   inkscape:pageshadow="2"
   inkscape:window-width="1920"
   inkscape:window-height="1017"
   id="namedview1009"
   showgrid="false"
   inkscape:zoom="0.9987126"
   inkscape:cx="111.92135"
   inkscape:cy="148.66177"
   inkscape:window-x="1592"
   inkscape:window-y="-8"
   inkscape:window-maximized="1"
   inkscape:current-layer="svg1007" />
 <defs
   id="defs916">
  <style
   type="text/css"
   id="style914">
   <![CDATA[
    .fil15 {fill:black}
    .fil11 {fill:#106292}
    .fil10 {fill:#148CBE}
    .fil8 {fill:#1B847D}
    .fil9 {fill:#1EABD9}
    .fil12 {fill:#223C5D}
    .fil7 {fill:#23A277}
    .fil6 {fill:#309E48}
    .fil14 {fill:#BD191B}
    .fil4 {fill:#DC1C22}
    .fil5 {fill:#E6373E}
    .fil0 {fill:#EA5459}
    .fil1 {fill:#ED5129}
    .fil2 {fill:#F47B20}
    .fil3 {fill:#F79625}
    .fil13 {fill:#FDBF5C}
   ]]>
  </style>
 
  
  
 
   
   
  
    
    
    
    
    
    
    
    
    
    
    
    
   </defs>
 <g
   id="g977"
   transform="translate(-5698.2731)">
    <polygon
   class="fil0"
   points="6848,3308 5702,3970 5702,2647 "
   id="polygon919"
   style="fill:#ea5459" />
    <polygon
   class="fil1"
   points="6848,3308 5702,2647 6848,1985 "
   id="polygon921"
   style="fill:#ed5129" />
    <polygon
   class="fil2"
   points="6848,1985 5702,2647 5702,1323 "
   id="polygon923"
   style="fill:#f47b20" />
    <polygon
   class="fil3"
   points="6848,1985 5702,1323 6848,662 "
   id="polygon925"
   style="fill:#f79625" />
    <polygon
   class="fil4"
   points="6848,3308 6848,4632 7994,3970 "
   id="polygon927"
   style="fill:#dc1c22" />
    <polygon
   class="fil5"
   points="7994,3970 6848,4632 7994,5293 "
   id="polygon929"
   style="fill:#e6373e" />
    <polygon
   class="fil6"
   points="7994,1323 7994,0 9140,662 "
   id="polygon931"
   style="fill:#309e48" />
    <polygon
   class="fil7"
   points="7994,1323 9140,662 9140,1985 "
   id="polygon933"
   style="fill:#23a277" />
    <polygon
   class="fil8"
   points="9140,1985 9140,662 10286,1323 "
   id="polygon935"
   style="fill:#1b847d" />
    <polygon
   class="fil9"
   points="9140,1985 10286,1323 10286,2647 "
   id="polygon937"
   style="fill:#1eabd9" />
    <polygon
   class="fil10"
   points="9140,1985 10286,2647 9140,3308 "
   id="polygon939"
   style="fill:#148cbe" />
    <polygon
   class="fil11"
   points="9140,3308 10286,2647 10286,3970 "
   id="polygon941"
   style="fill:#106292" />
    <polygon
   class="fil12"
   points="9140,3308 10286,3970 9140,4632 "
   id="polygon943"
   style="fill:#223c5d" />
    <polygon
   class="fil7"
   points="7994,3970 9140,3308 9140,4632 "
   id="polygon945"
   style="fill:#23a277" />
    <polygon
   class="fil13"
   points="7994,3970 9140,4632 7994,5293 "
   id="polygon947"
   style="fill:#fdbf5c" />
    <polygon
   class="fil14"
   points="6082,5678 6082,5292 5702,5293 6848,4632 6848,5955 6844,5953 6844,6062 6460,6062 6460,5677 "
   id="polygon949"
   style="fill:#bd191b" />
    <polygon
   class="fil14"
   points="5698,5678 6082,5678 6082,6062 5698,6062 "
   id="polygon951"
   style="fill:#bd191b" />
    <polygon
   class="fil4"
   points="6437,6142 6139,6142 6139,6440 6437,6440 "
   id="polygon953"
   style="fill:#dc1c22" />
    <polygon
   class="fil1"
   points="6808,6508 6534,6508 6534,6782 6808,6782 "
   id="polygon955"
   style="fill:#ed5129" />
    <polygon
   class="fil5"
   points="6022,6517 5759,6517 5759,6780 6022,6780 "
   id="polygon957"
   style="fill:#e6373e" />
    <polygon
   class="fil2"
   points="6419,6874 6157,6874 6157,7137 6419,7137 "
   id="polygon959"
   style="fill:#f47b20" />
    <polygon
   class="fil1"
   points="7562,2647 7562,2899 7999,2647 7562,2394 "
   id="polygon961"
   style="fill:#ed5129" />
    <polygon
   class="fil13"
   points="7999,2142 7781,2268 7562,2394 7999,2647 "
   id="polygon963"
   style="fill:#fdbf5c" />
    <polygon
   class="fil7"
   points="8436,2394 8218,2268 7999,2142 7999,2647 "
   id="polygon965"
   style="fill:#23a277" />
    <polygon
   class="fil10"
   points="8436,2899 8436,2647 8436,2394 7999,2647 "
   id="polygon967"
   style="fill:#148cbe" />
    <polygon
   class="fil7"
   points="7999,3151 8218,3025 8436,2899 7999,2647 "
   id="polygon969"
   style="fill:#23a277" />
    <polygon
   class="fil5"
   points="7562,2899 7781,3025 7999,3151 7999,2647 "
   id="polygon971"
   style="fill:#e6373e" />
    <polygon
   class="fil5"
   points="5702,3970 6848,4632 6848,3308 "
   id="polygon973"
   style="fill:#e6373e" />
    <polygon
   class="fil4"
   points="5702,3970 5705,5291 6848,4632 "
   id="polygon975"
   style="fill:#dc1c22" />
   </g>
</svg>